<svg width="32" height="32" viewBox="0 0 32 32" fill="none" xmlns="http://www.w3.org/2000/svg">
  <defs>
    <!-- Main gradient using new theme accent colors -->
    <linearGradient id="mainGradient" x1="0%" y1="0%" x2="100%" y2="100%">
      <stop offset="0%" style="stop-color:#00c6ff;stop-opacity:1" />
      <stop offset="100%" style="stop-color:#0072ff;stop-opacity:1" />
    </linearGradient>
    
    <!-- Light accent gradient for highlights -->
    <linearGradient id="lightGradient" x1="0%" y1="0%" x2="100%" y2="100%">
      <stop offset="0%" style="stop-color:#ffffff;stop-opacity:0.4" />
      <stop offset="100%" style="stop-color:#ffffff;stop-opacity:0.1" />
    </linearGradient>
    
    <!-- Subtle shadow filter -->
    <filter id="shadow" x="-50%" y="-50%" width="200%" height="200%">
      <feDropShadow dx="0" dy="1" stdDeviation="1.5" flood-color="#0072ff" flood-opacity="0.2"/>
    </filter>
  </defs>
  
  <!-- Background circle with main theme gradient -->
  <circle cx="16" cy="16" r="14.5" fill="url(#mainGradient)" filter="url(#shadow)"/>
  
  <!-- Blog/Document icon -->
  <!-- Paper/Document base -->
  <rect x="9" y="7" width="12" height="16" rx="1.5" fill="white" opacity="0.95"/>
  
  <!-- Header line (blog title) -->
  <rect x="11" y="9.5" width="8" height="1.5" rx="0.75" fill="url(#mainGradient)"/>
  
  <!-- Content lines (blog content) -->
  <rect x="11" y="12.5" width="6" height="0.8" rx="0.4" fill="#333333" opacity="0.6"/>
  <rect x="11" y="14.5" width="7" height="0.8" rx="0.4" fill="#333333" opacity="0.6"/>
  <rect x="11" y="16.5" width="5" height="0.8" rx="0.4" fill="#333333" opacity="0.6"/>
  <rect x="11" y="18.5" width="6.5" height="0.8" rx="0.4" fill="#333333" opacity="0.6"/>
  
  <!-- Modern pen/writing tool -->
  <g transform="translate(18.5, 18.5) rotate(45)">
    <!-- Pen body -->
    <rect x="-0.6" y="-4" width="1.2" height="6" rx="0.6" fill="url(#mainGradient)"/>
    <!-- Pen tip -->
    <circle cx="0" cy="2.5" r="0.9" fill="#0072ff"/>
    <!-- Pen highlight -->
    <rect x="-0.4" y="-3.5" width="0.8" height="2.5" rx="0.4" fill="url(#lightGradient)"/>
  </g>
  
  <!-- Outer ring highlight -->
  <circle cx="16" cy="16" r="14.5" fill="none" stroke="url(#lightGradient)" stroke-width="0.5" opacity="0.8"/>
</svg>